<?xml version="1.0" encoding="utf-8"?>


<!-- The icon can be used freely in both personal and commercial projects with no attribution required, but always appreciated. 
You may NOT sub-license, resell, rent, redistribute or otherwise transfer the icon without express written permission from iconmonstr.com -->


<!DOCTYPE svg PUBLIC "-//W3C//DTD SVG 1.1//EN" "http://www.w3.org/Graphics/SVG/1.1/DTD/svg11.dtd">

<svg version="1.1" xmlns="http://www.w3.org/2000/svg" xmlns:xlink="http://www.w3.org/1999/xlink" x="0px" y="0px"

	 width="512px" height="512px" viewBox="0 0 512 512" enable-background="new 0 0 512 512" xml:space="preserve">

<path id="upload-9-icon" d="M154.647,236.729l103.354-103.531l103.351,103.531h-47.529v38.77H202.177v-38.77H154.647z

	 M313.823,293.51H202.177v31.318h111.646V293.51z M202.177,341.271v25.53h111.646v-25.53H202.177z M422,256

	c0-91.756-74.258-166-166-166c-91.755,0-166,74.258-166,166c0,91.755,74.258,166,166,166C347.755,422,422,347.741,422,256z M50,256

	c0-113.771,92.229-206,206-206s206,92.229,206,206c0,113.771-92.229,206-206,206S50,369.771,50,256z"/>

</svg>

