<?xml version="1.0" standalone="no"?>
<!DOCTYPE svg PUBLIC "-//W3C//DTD SVG 1.1//EN" "http://www.w3.org/Graphics/SVG/1.1/DTD/svg11.dtd" >
<svg xmlns="http://www.w3.org/2000/svg">
<metadata></metadata>
<defs>
<font id="din-mediumregular" horiz-adv-x="1091" >
<font-face units-per-em="2048" ascent="1638" descent="-410" />
<missing-glyph horiz-adv-x="491" />
<glyph horiz-adv-x="0" />
<glyph unicode="&#xd;" horiz-adv-x="491" />
<glyph unicode=" "  horiz-adv-x="491" />
<glyph unicode="&#x09;" horiz-adv-x="491" />
<glyph unicode="&#xa0;" horiz-adv-x="491" />
<glyph unicode="!" horiz-adv-x="679" d="M248 1458l45 -1024h164l45 1024h-254zM260 0h229v223h-229v-223z" />
<glyph unicode="&#x22;" horiz-adv-x="909" d="M160 1067h207v391h-207v-391zM543 1067h207v391h-207v-391z" />
<glyph unicode="#" horiz-adv-x="1376" d="M139 426h162l-68 -426h220l65 426h281l-68 -426h217l68 426h192v192h-161l40 254h189v193h-160l64 401h-217l-64 -401h-278l63 401h-219l-64 -401h-194v-193h166l-41 -254h-193v-192zM549 618l41 254h278l-39 -254h-280z" />
<glyph unicode="$" horiz-adv-x="1245" d="M61 180q94 -96 206 -141t261 -51v-221h168v227q201 18 322 130t121 292q0 195 -119 299q-47 43 -109.5 68.5t-162.5 39.5l-70 11v442q164 -12 268 -111l141 140q-82 78 -176 116.5t-215 46.5v183h-168v-185q-195 -18 -306 -132.5t-111 -291.5q0 -176 108 -278 q47 -43 119 -75t156 -42l53 -6v-455q-104 4 -185 36t-153 104zM326 1051q0 90 58 151.5t163 71.5v-426q-106 14 -166 67q-55 49 -55 136zM678 190v435q6 0 18 -2q59 -8 96 -19.5t70 -42.5q58 -51 58 -151q0 -94 -63.5 -151.5t-178.5 -68.5z" />
<glyph unicode="%" horiz-adv-x="1724" d="M119 985q0 -129 82 -203.5t205 -74.5t204.5 74.5t81.5 203.5v207q0 129 -82 205t-204 76q-123 0 -205 -76t-82 -205v-207zM276 991v195q0 147 130 147q129 0 129 -147v-195q0 -145 -129 -145t-130 145zM434 0h168l686 1458h-166zM1032 266q0 -129 82 -204.5t205 -75.5 t205 75.5t82 204.5v207q0 129 -82 205t-205 76t-205 -76t-82 -205v-207zM1190 272v195q0 147 129 147t129 -147v-195q0 -147 -129 -147t-129 147z" />
<glyph unicode="&#x26;" horiz-adv-x="1495" d="M139 422q0 -201 123 -317.5t348 -116.5q143 0 235.5 44.5t168.5 110.5l119 -143h268l-244 291q72 84 106.5 193.5t39.5 254.5h-201q-2 -100 -19.5 -167.5t-58.5 -125.5l-307 367q25 16 56.5 38.5t49.5 35.5q74 51 115 113.5t41 144.5q0 141 -96.5 233t-249.5 92 q-160 0 -258.5 -91t-98.5 -232q0 -90 41 -162t111 -151q-63 -43 -112.5 -82t-89.5 -87.5t-63.5 -109.5t-23.5 -133zM346 426q0 92 48 149.5t149 126.5l346 -411q-70 -61 -135.5 -87t-143.5 -26q-115 0 -189.5 69.5t-74.5 178.5zM489 1145q0 63 39 103t105 40q63 0 104 -42 t41 -103q0 -47 -27.5 -82t-78.5 -70q-12 -8 -31.5 -21.5t-38.5 -25.5q-59 72 -86 116t-27 85z" />
<glyph unicode="'" horiz-adv-x="526" d="M160 1067h207v391h-207v-391z" />
<glyph unicode="(" horiz-adv-x="649" d="M176 240q0 -76 9.5 -131.5t37.5 -106.5q25 -45 57.5 -82t88.5 -92l20 -21l141 142l-22 22q-37 35 -55.5 57.5t-36.5 55.5q-31 59 -31 168v954q0 111 31 168q16 33 35.5 55.5t56.5 57.5l22 22l-141 142q-20 -20 -20 -21q-55 -55 -88 -92t-58 -82q-29 -51 -38 -106.5 t-9 -130.5v-979z" />
<glyph unicode=")" horiz-adv-x="649" d="M119 -49l143 -144l10 11q59 57 93 97t61 87q29 51 39 107.5t10 130.5v979q0 74 -10 130t-39 107q-25 47 -58.5 85t-95.5 99l-10 11l-143 -144l16 -16q37 -37 57.5 -60.5t38.5 -58.5q31 -57 31 -166v-954q0 -106 -31 -166q-18 -35 -38.5 -58.5t-57.5 -60.5z" />
<glyph unicode="*" horiz-adv-x="993" d="M125 954l76 -133l227 142l-8 -269h153l-8 269l228 -142l75 133l-235 125l235 127l-75 133l-228 -141l8 266h-153l8 -266l-227 141l-76 -133l235 -127z" />
<glyph unicode="+" d="M104 461h345v-344h194v344h344v194h-344v342h-194v-342h-345v-194z" />
<glyph unicode="," horiz-adv-x="557" d="M160 238v-555l237 194v361h-237z" />
<glyph unicode="-" horiz-adv-x="872" d="M137 471h598v195h-598v-195z" />
<glyph unicode="." horiz-adv-x="569" d="M160 0h250v250h-250v-250z" />
<glyph unicode="/" horiz-adv-x="778" d="M0 -152h201l583 1762h-200z" />
<glyph unicode="0" d="M125 406q0 -190 123 -308q57 -53 134 -81.5t163 -28.5q88 0 163.5 28.5t133.5 81.5q125 118 125 308v647q0 190 -125 307q-57 53 -133 81.5t-164 28.5q-86 0 -163 -28.5t-134 -81.5q-123 -117 -123 -307v-647zM334 412v635q0 109 56 173t155 64q98 0 155.5 -65.5 t57.5 -171.5v-635q0 -106 -57.5 -172t-155.5 -66t-154.5 65.5t-56.5 172.5z" />
<glyph unicode="1" d="M233 981l285 250v-1231h209v1458h-209l-285 -246v-231z" />
<glyph unicode="2" d="M129 0h848v186h-594l457 559q76 92 106.5 159t30.5 157q0 186 -117 297.5t-305 111.5q-186 0 -305 -113.5t-119 -297.5h209q0 115 61.5 170t153.5 55q100 0 156.5 -60.5t56.5 -160.5q0 -55 -17.5 -99t-60.5 -96l-561 -682v-186z" />
<glyph unicode="3" d="M86 395q6 -203 132 -306t314 -103q193 0 320 110.5t127 313.5q0 131 -53.5 216t-151.5 128q88 43 135 120.5t47 190.5q0 180 -118.5 294t-305.5 114q-178 0 -298.5 -108t-129.5 -290h209q8 98 66.5 153.5t152.5 55.5q92 0 154 -59.5t62 -165.5q0 -104 -55.5 -162.5 t-166.5 -58.5h-34v-183h34q121 0 182.5 -63.5t61.5 -175.5q0 -113 -66.5 -177.5t-171.5 -64.5q-98 0 -164.5 55.5t-72.5 165.5h-209z" />
<glyph unicode="4" d="M72 219h590v-219h202v219h156v195h-156v340h-202v-340h-363l512 1044h-225l-514 -1044v-195z" />
<glyph unicode="5" d="M129 377q6 -88 30.5 -155.5t80.5 -123.5q51 -51 131 -81.5t180 -30.5t177 30.5t130 83.5q74 74 98.5 164t24.5 223q0 123 -25.5 218.5t-101.5 171.5q-94 94 -262 94q-78 0 -140.5 -22.5t-101.5 -61.5v385h598v186h-786v-796h190q18 57 70.5 94t136.5 37q119 0 166 -80 t47 -226q0 -88 -14.5 -151.5t-55.5 -104.5q-57 -57 -151 -57q-96 0 -148.5 52.5t-64.5 150.5h-209z" />
<glyph unicode="6" d="M115 424q0 -201 119.5 -318.5t312.5 -117.5q190 0 310 122.5t120 321.5q0 188 -110.5 305t-272.5 117q-76 0 -129 -23l313 627h-223l-332 -676q-53 -106 -80.5 -191t-27.5 -167zM324 428q0 117 60 184.5t161 67.5q102 0 162.5 -70.5t60.5 -181.5q0 -115 -62.5 -184.5 t-160.5 -69.5t-159.5 68.5t-61.5 185.5z" />
<glyph unicode="7" d="M129 1042h201v230h444l-489 -1272h225l487 1272v186h-868v-416z" />
<glyph unicode="8" d="M96 412q0 -96 34 -176t97 -136q125 -113 318 -112q94 0 176 28.5t143 83.5q131 119 131 312q0 121 -56 204.5t-144 137.5q78 47 127 125.5t49 187.5q0 90 -33 165t-91.5 128t-135 81.5t-166.5 28.5q-88 0 -166 -28.5t-135.5 -81.5t-90 -128t-32.5 -165q0 -109 49 -187.5 t127 -125.5q-88 -53 -144.5 -137.5t-56.5 -204.5zM305 416q0 102 69.5 172.5t170.5 70.5q100 0 169.5 -70.5t69.5 -172.5t-69.5 -172t-169.5 -70t-170 69.5t-70 172.5zM330 1061q0 96 60.5 159.5t154.5 63.5t155.5 -63.5t61.5 -159.5t-61.5 -158.5t-155.5 -62.5t-154.5 62.5 t-60.5 158.5z" />
<glyph unicode="9" d="M115 1026q0 -188 109.5 -305t271.5 -117q78 0 131 23l-314 -627h224l331 676q53 106 81 191t28 167q0 201 -120 318.5t-312 117.5q-190 0 -310 -122.5t-120 -321.5zM324 1030q0 117 61 185.5t160 68.5q98 0 160.5 -68.5t62.5 -185.5t-61.5 -184.5t-161.5 -67.5 q-102 0 -161.5 71t-59.5 181z" />
<glyph unicode=":" horiz-adv-x="620" d="M213 0h248v250h-248v-250zM213 584h248v250h-248v-250z" />
<glyph unicode=";" horiz-adv-x="620" d="M213 584h248v250h-248v-250zM217 238v-555l238 194v361h-238z" />
<glyph unicode="&#x3c;" horiz-adv-x="694" d="M76 557l471 469v-252l-219 -217l219 -219v-252z" />
<glyph unicode="=" d="M104 272h883v195h-883v-195zM104 670h883v194h-883v-194z" />
<glyph unicode="&#x3e;" horiz-adv-x="694" d="M147 86v252l222 219l-222 217v252l474 -469z" />
<glyph unicode="?" horiz-adv-x="1046" d="M145 1077h209q0 88 53.5 147.5t145.5 59.5q88 0 144.5 -58.5t56.5 -146.5q0 -72 -64 -155l-160 -215q-37 -49 -53 -95.5t-16 -107.5v-72h209v62q0 25 10 56.5t27 53.5l157 221q47 66 73 125t26 127q0 88 -32 161t-89 126q-117 104 -289 104q-86 0 -161 -28.5t-130 -80.5 t-86 -125t-31 -159zM449 0h231v223h-231v-223z" />
<glyph unicode="@" horiz-adv-x="1507" d="M131 334q0 -135 35 -209t127 -150l143 144q-59 47 -80.5 93t-21.5 132v639q0 78 15.5 127t60.5 94q41 41 93 58.5t122 17.5h258q141 0 217 -76q41 -43 58.5 -94t17.5 -127v-125q-98 115 -258 115q-84 0 -155 -31t-116 -86q-53 -63 -70.5 -147t-17.5 -230 q0 -150 18.5 -232.5t73.5 -146.5q49 -55 118 -84.5t151 -29.5q88 0 148 28.5t112 87.5v-102l196 -4v989q0 119 -28.5 206t-94.5 152q-121 121 -350 121h-299q-231 0 -352 -121q-121 -123 -121 -358v-651zM760 479q0 72 9 128.5t31.5 99.5t63.5 66.5t103 23.5q119 0 164 -84 t45 -234t-45.5 -232.5t-163.5 -82.5q-61 0 -102.5 23.5t-65.5 68.5q-39 74 -39 223z" />
<glyph unicode="A" horiz-adv-x="1280" d="M16 0h236l100 293h576l100 -293h236l-535 1458h-178zM418 481l227 647l221 -647h-448z" />
<glyph unicode="B" horiz-adv-x="1357" d="M190 0h590q199 0 320 107.5t121 304.5q0 129 -62.5 215t-157.5 123q80 33 138.5 115.5t58.5 193.5q0 184 -118.5 291.5t-321.5 107.5h-568v-1458zM412 199v444h348q113 0 176 -61.5t63 -159.5t-63.5 -160.5t-175.5 -62.5h-348zM412 842v418h327q109 0 173.5 -54.5 t64.5 -154.5t-64.5 -154.5t-173.5 -54.5h-327z" />
<glyph unicode="C" horiz-adv-x="1286" d="M137 729q0 -135 3 -211t15.5 -142.5t42 -123.5t81.5 -109q155 -155 380 -155h3q203 0 343 117.5t177 330.5h-224q-27 -115 -102.5 -182.5t-193.5 -67.5q-63 0 -120 23.5t-96 64.5q-29 31 -45 64t-25 82t-13.5 121.5t-4.5 187.5t4.5 186.5t13.5 121.5t26.5 84t43.5 63 q39 41 95.5 64.5t120.5 23.5q117 0 192.5 -67.5t101.5 -182.5h226q-37 215 -176.5 331.5t-343.5 116.5q-227 0 -383 -155q-51 -51 -80 -108.5t-42.5 -124t-16.5 -141.5t-3 -212z" />
<glyph unicode="D" horiz-adv-x="1363" d="M190 0h512q240 0 377 137q94 94 121 229t27 373q0 231 -25.5 359.5t-122.5 222.5q-137 137 -377 137h-512v-1458zM412 199v1061h268q158 0 248 -99q51 -57 64.5 -148.5t13.5 -273.5q0 -186 -13.5 -285.5t-64.5 -156.5q-90 -98 -248 -98h-268z" />
<glyph unicode="E" horiz-adv-x="1234" d="M190 0h932v199h-710v438h606v197h-606v426h710v198h-932v-1458z" />
<glyph unicode="F" horiz-adv-x="1198" d="M190 0h222v616h606v199h-606v445h710v198h-932v-1458z" />
<glyph unicode="G" horiz-adv-x="1329" d="M137 729q0 -135 3 -211t15.5 -142.5t42 -123.5t81.5 -109q155 -155 380 -155h3q119 0 219 40t182 126q72 76 101.5 172t29.5 239v223h-532v-188h311v-82q0 -143 -74 -229q-90 -102 -237 -103q-63 0 -120 23.5t-96 64.5q-29 31 -45 64t-25 82t-13.5 121.5t-4.5 187.5 t4.5 186.5t13.5 120.5t26.5 82t43.5 64q39 43 95.5 66.5t120.5 23.5q121 0 199.5 -66.5t107.5 -187.5h223q-33 199 -171 325.5t-359 126.5q-227 0 -383 -155q-51 -51 -80 -108.5t-42.5 -124t-16.5 -141.5t-3 -212z" />
<glyph unicode="H" horiz-adv-x="1415" d="M190 0h222v637h592v-637h221v1458h-221v-622h-592v622h-222v-1458z" />
<glyph unicode="I" horiz-adv-x="602" d="M190 0h222v1458h-222v-1458z" />
<glyph unicode="J" horiz-adv-x="1036" d="M27 129q76 -76 158.5 -108.5t195.5 -32.5q209 0 347 126t138 347v997h-221v-981q0 -141 -69.5 -216t-194.5 -75q-74 0 -118 21.5t-89 66.5z" />
<glyph unicode="K" horiz-adv-x="1347" d="M190 0h222v424l245 295l410 -719h260l-522 887l473 571h-270l-596 -733v733h-222v-1458z" />
<glyph unicode="L" horiz-adv-x="1175" d="M190 0h924v199h-702v1259h-222v-1458z" />
<glyph unicode="M" horiz-adv-x="1665" d="M190 0h222v975l344 -711h164l335 711v-975h222v1458h-222l-417 -907l-426 907h-222v-1458z" />
<glyph unicode="N" horiz-adv-x="1478" d="M190 0h222v1026l231 -350l442 -676h203v1458h-221v-1024l-258 393l-416 631h-203v-1458z" />
<glyph unicode="O" horiz-adv-x="1323" d="M137 729q0 -135 3 -211t15.5 -142.5t42 -123.5t81.5 -109q155 -155 380 -155h3q229 0 385 155q49 49 77.5 104.5t42 123t16.5 145.5t3 213t-3 213t-16.5 145.5t-42 123t-77.5 104.5q-155 155 -382 155h-3q-227 0 -383 -155q-51 -51 -80 -108.5t-42.5 -124t-16.5 -141.5 t-3 -212zM358 729q0 113 4.5 186.5t12.5 121.5t25.5 82t43.5 63q39 43 96.5 66.5t121.5 23.5q63 0 120.5 -23.5t96.5 -66.5q29 -31 45 -64t25 -82t12.5 -121.5t3.5 -185.5t-3.5 -186.5t-12.5 -121.5t-26.5 -81t-43.5 -64q-39 -41 -96.5 -65.5t-120.5 -24.5t-121 25t-97 65 q-29 31 -44 64t-24 82t-13.5 121.5t-4.5 185.5z" />
<glyph unicode="P" horiz-adv-x="1288" d="M190 0h222v573h331q211 0 340 127q61 59 94 140.5t33 175.5t-32.5 175t-94.5 142q-129 125 -340 125h-553v-1458zM412 774v486h319q117 0 187.5 -65.5t70.5 -178.5t-70.5 -177.5t-187.5 -64.5h-319z" />
<glyph unicode="Q" horiz-adv-x="1323" d="M137 729q0 -135 3 -211t15.5 -142.5t42 -123.5t81.5 -109q155 -155 380 -155h3q174 0 305 92l145 -146l123 123l-143 142q63 86 78.5 193.5t15.5 336.5q0 135 -3 213t-16.5 145.5t-42 123t-77.5 104.5q-155 155 -382 155h-3q-227 0 -383 -155q-51 -51 -80 -108.5 t-42.5 -124t-16.5 -141.5t-3 -212zM358 729q0 113 4.5 186.5t12.5 121.5t25.5 82t43.5 63q39 43 96.5 66.5t121.5 23.5q63 0 120.5 -23.5t96.5 -66.5q29 -31 45 -64t25 -82t12.5 -121.5t3.5 -185.5q0 -150 -8.5 -228.5t-34.5 -131.5l-142 141l-123 -123l154 -154 q-66 -47 -149 -47q-63 0 -121 25t-97 65q-29 31 -44 64t-24 82t-13.5 121.5t-4.5 185.5z" />
<glyph unicode="R" horiz-adv-x="1341" d="M190 0h222v614h276l307 -614h258l-335 645q129 35 209.5 136.5t80.5 250.5q0 188 -123.5 307t-328.5 119h-566v-1458zM412 803v457h327q111 0 179.5 -62t68.5 -168t-67.5 -166.5t-180.5 -60.5h-327z" />
<glyph unicode="S" horiz-adv-x="1208" d="M61 180q102 -104 225.5 -148t291.5 -44q233 0 378.5 114.5t145.5 313.5q0 195 -119 299q-47 43 -109.5 68.5t-162.5 39.5l-80 13l-86 12q-106 16 -164 67q-55 49 -55 136q0 100 70.5 163.5t195.5 63.5q98 0 176 -25.5t141 -87.5l142 140q-94 88 -201 126.5t-252 38.5 q-225 0 -356 -117.5t-131 -310.5q0 -178 106 -278q98 -92 277 -117l86 -12l86 -12q63 -8 98 -21.5t61 -40.5q57 -51 58 -151q0 -106 -79 -165t-222 -59q-119 0 -207 32t-166 108z" />
<glyph unicode="T" horiz-adv-x="1146" d="M61 1260h402v-1260h221v1260h401v198h-1024v-198z" />
<glyph unicode="U" horiz-adv-x="1382" d="M168 492q0 -111 39 -204t110.5 -161t167 -103.5t205.5 -35.5q111 0 207 35.5t167 103.5t110.5 161t39.5 204v966h-221v-956q0 -145 -83 -230.5t-220 -85.5t-219 85t-82 231v956h-221v-966z" />
<glyph unicode="V" horiz-adv-x="1155" d="M10 1458l479 -1458h173l483 1458h-234l-336 -1061l-335 1061h-230z" />
<glyph unicode="W" horiz-adv-x="1783" d="M23 1458l380 -1458h193l295 1022l297 -1022h192l381 1458h-233l-254 -1042l-293 1042h-178l-293 -1042l-254 1042h-233z" />
<glyph unicode="X" horiz-adv-x="1183" d="M20 0h254l316 559l317 -559h256l-452 748l422 710h-254l-289 -522l-287 522h-254l422 -710z" />
<glyph unicode="Y" horiz-adv-x="1114" d="M10 1458l436 -858v-600h222v600l436 858h-242l-305 -641l-305 641h-242z" />
<glyph unicode="Z" horiz-adv-x="1130" d="M98 0h934v199h-678l678 1079v180h-905v-198h645l-674 -1070v-190z" />
<glyph unicode="[" horiz-adv-x="710" d="M176 -152h447v187h-238v1388h238v187h-447v-1762z" />
<glyph unicode="\" horiz-adv-x="778" d="M0 1593l578 -1745h200l-577 1745h-201z" />
<glyph unicode="]" horiz-adv-x="710" d="M88 33v-185h447v1762h-447v-185h242v-1392h-242z" />
<glyph unicode="^" horiz-adv-x="1169" d="M137 821h217l230 424l229 -424h217l-350 652h-191z" />
<glyph unicode="_" horiz-adv-x="1169" d="M0 -209v-143h1169v143h-1169z" />
<glyph unicode="`" horiz-adv-x="1024" d="M233 1559l228 -332h157l-153 332h-232z" />
<glyph unicode="a" horiz-adv-x="1085" d="M88 305q0 -137 82 -223q94 -94 279 -94q96 0 157.5 24.5t118.5 81.5v-94h205v694q0 356 -428 357q-133 0 -217 -33t-156 -117l137 -129q43 55 92.5 77.5t135.5 22.5q119 0 173 -47t54 -147v-74h-275q-174 0 -266 -82t-92 -217zM291 309q0 150 186 150h244v-84 q0 -109 -45 -154q-39 -37 -83 -48t-112 -11q-190 0 -190 147z" />
<glyph unicode="b" horiz-adv-x="1132" d="M166 0h205v111q57 -68 121.5 -95.5t152.5 -27.5q78 0 144.5 24.5t109.5 67.5q70 70 93.5 181.5t23.5 258.5t-23.5 258t-93.5 180q-43 43 -108.5 68t-143.5 25q-88 0 -152.5 -26t-119.5 -91v524h-209v-1458zM375 520q0 80 8 139.5t30.5 105.5t66.5 72.5t112 26.5 t110.5 -26.5t66.5 -73.5t31 -106.5t7 -137.5t-7 -137t-31 -107.5t-67 -75t-110 -26.5q-68 0 -112 26.5t-66.5 74t-30.5 106.5t-8 139z" />
<glyph unicode="c" horiz-adv-x="993" d="M113 520q0 -139 37.5 -242.5t103 -167t147.5 -93t174 -29.5q109 0 189 34.5t154 112.5l-144 137q-49 -55 -93 -76.5t-106 -21.5q-123 0 -192 92q-33 41 -47 101.5t-14 152.5t14 151.5t47 100.5q70 92 192 92q61 0 105.5 -21.5t93.5 -76.5l144 139q-74 78 -154 112 t-189 34q-92 0 -174 -29t-147.5 -92.5t-103 -165.5t-37.5 -244z" />
<glyph unicode="d" horiz-adv-x="1132" d="M117 520q0 -147 23.5 -258.5t92.5 -181.5q43 -43 110 -67.5t144 -24.5q88 0 154 27.5t121 95.5v-111h205v1458h-209v-524q-53 66 -119 91.5t-154 25.5q-78 0 -143.5 -25t-108.5 -68q-70 -70 -93 -180t-23 -258zM326 520q0 80 8 139.5t30.5 105.5t66.5 72.5t112 26.5 t110.5 -26.5t66 -73.5t31 -106.5t7.5 -137.5t-7.5 -137t-31 -107.5t-66.5 -75t-110 -26.5q-68 0 -112 26.5t-66.5 74t-30.5 106.5t-8 139z" />
<glyph unicode="e" horiz-adv-x="1103" d="M113 520q0 -143 35.5 -246.5t98 -166t146.5 -91t187 -28.5q131 0 218 39t171 123l-133 124q-57 -57 -112.5 -81.5t-139.5 -24.5q-125 0 -195 78t-70 213h674v92q0 225 -116.5 362.5t-323.5 137.5q-201 0 -320.5 -140.5t-119.5 -390.5zM319 604q2 51 7.5 80t19.5 61 q25 59 80 95.5t127 36.5t126 -36t79 -96q16 -35 21 -64.5t7 -76.5h-467z" />
<glyph unicode="f" horiz-adv-x="671" d="M80 860h119v-860h209v860h206v160h-206v149q0 121 114 121h92v178h-131q-137 0 -210.5 -84t-73.5 -204v-160h-119v-160z" />
<glyph unicode="g" horiz-adv-x="1124" d="M117 539q0 -152 23.5 -252.5t92.5 -169.5q92 -92 248 -92q84 0 148.5 26.5t120.5 91.5v-133q0 -115 -59.5 -189.5t-184.5 -74.5q-74 0 -123 21.5t-102 70.5l-134 -133q82 -76 165 -106.5t202 -30.5q205 0 324.5 121.5t119.5 316.5v1032h-202v-110q-55 68 -121 95.5 t-152 27.5q-160 0 -250 -90q-70 -70 -93 -170.5t-23 -251.5zM326 539q0 72 8 127t29.5 100t64.5 71.5t111 26.5t110.5 -26.5t64 -71.5t29 -100t7.5 -127t-7.5 -127.5t-29 -100.5t-64.5 -71.5t-110 -26.5q-68 0 -111 26.5t-64.5 71.5t-29.5 100.5t-8 127.5z" />
<glyph unicode="h" horiz-adv-x="1159" d="M166 0h209v637q0 113 59.5 170t151.5 57t150.5 -57t58.5 -170v-637h209v670q0 172 -95.5 276.5t-265.5 104.5q-160 0 -268 -117v524h-209v-1458z" />
<glyph unicode="i" horiz-adv-x="540" d="M160 1243h221v221h-221v-221zM166 0h209v1038h-209v-1038z" />
<glyph unicode="j" horiz-adv-x="540" d="M-39 -246v-178h129q141 0 213 81t72 206v1175h-209v-1163q0 -61 -25.5 -91t-87.5 -30h-92zM160 1243h221v221h-221v-221z" />
<glyph unicode="k" horiz-adv-x="1122" d="M166 0h209v305l153 174l291 -479h258l-405 631l360 407h-254l-403 -479v899h-209v-1458z" />
<glyph unicode="l" horiz-adv-x="636" d="M160 287q0 -125 71.5 -206t212.5 -81h129v178h-92q-61 0 -86.5 30t-25.5 91v1159h-209v-1171z" />
<glyph unicode="m" horiz-adv-x="1796" d="M166 0h209v633q0 115 60.5 173t154.5 58t151.5 -57t57.5 -174v-633h209v643q0 106 62.5 163.5t152.5 57.5q94 0 151.5 -57t57.5 -174v-633h208v664q0 184 -110 292q-47 45 -114.5 70t-147.5 25q-201 0 -326 -152q-98 152 -295 152q-80 0 -152.5 -30t-123.5 -87v104h-205 v-1038z" />
<glyph unicode="n" horiz-adv-x="1163" d="M166 0h209v633q0 115 60.5 173t154.5 58t151.5 -57t57.5 -174v-633h209v664q0 94 -23.5 165.5t-81.5 126.5q-98 94 -256 95q-168 0 -276 -117v104h-205v-1038z" />
<glyph unicode="o" horiz-adv-x="1099" d="M117 520q0 -141 26.5 -238.5t96.5 -170.5q55 -57 132 -90t177 -33t178 33.5t133 89.5q70 74 96.5 171t26.5 238t-26.5 238.5t-96.5 169.5q-55 57 -133 90t-178 33t-177 -33t-132 -90q-70 -72 -96.5 -169t-26.5 -239zM326 520q0 102 14 172t57 113q59 59 152 59 q94 0 153 -59q43 -43 57.5 -113t14.5 -172t-14.5 -171.5t-57.5 -112.5q-61 -61 -153 -62q-90 0 -152 62q-43 43 -57 112.5t-14 171.5z" />
<glyph unicode="p" horiz-adv-x="1132" d="M166 -420h209v526q55 -66 120.5 -92t151.5 -26q78 0 143.5 24.5t108.5 67.5q70 70 93.5 181.5t23.5 258.5t-23.5 258t-93.5 180q-43 43 -109.5 68t-144.5 25q-88 0 -152.5 -28t-121.5 -95v110h-205v-1458zM375 520q0 80 8 139.5t30.5 105.5t66.5 72.5t112 26.5 t110.5 -26.5t66.5 -73.5t31 -106.5t7 -137.5t-7 -137t-31 -107.5t-67 -75t-110 -26.5q-68 0 -112 26.5t-66.5 74t-30.5 106.5t-8 139z" />
<glyph unicode="q" horiz-adv-x="1132" d="M117 520q0 -147 23.5 -258.5t92.5 -181.5q43 -43 109 -67.5t143 -24.5q88 0 152.5 26.5t120.5 91.5v-526h209v1458h-205v-110q-55 68 -121 95.5t-154 27.5q-78 0 -144.5 -25t-109.5 -68q-70 -70 -93 -180t-23 -258zM326 520q0 80 8 139.5t30.5 105.5t66.5 72.5t112 26.5 t110.5 -26.5t66 -73.5t31 -106.5t7.5 -137.5t-7.5 -137t-31 -107.5t-66.5 -75t-110 -26.5q-68 0 -112 26.5t-66.5 74t-30.5 106.5t-8 139z" />
<glyph unicode="r" horiz-adv-x="899" d="M166 0h209v631q0 104 60.5 168.5t146.5 64.5q51 0 84.5 -16.5t70.5 -52.5l158 157q-53 53 -112.5 76t-135.5 23q-86 0 -160.5 -35t-115.5 -90v112h-205v-1038z" />
<glyph unicode="s" horiz-adv-x="1021" d="M66 137q86 -84 191 -116.5t245 -32.5q193 0 312.5 85.5t119.5 243.5q0 135 -80 208t-229 85l-80 6l-84 9q-78 8 -111 37.5t-33 80.5q0 61 49.5 97.5t139.5 36.5q78 0 143.5 -18.5t112.5 -57.5l131 133q-70 61 -167 89t-218 28q-168 0 -279.5 -85t-111.5 -233 q0 -133 78.5 -203.5t228.5 -83.5l82 -6l84 -8q72 -6 105.5 -36.5t33.5 -86.5q0 -70 -63.5 -106.5t-163.5 -36.5q-86 0 -164 24.5t-135 83.5z" />
<glyph unicode="t" horiz-adv-x="700" d="M72 860h118v-571q0 -121 74 -205t211 -84h125v178h-86q-115 0 -115 121v561h201v160h-201v315h-209v-315h-118v-160z" />
<glyph unicode="u" horiz-adv-x="1163" d="M156 375q0 -94 23.5 -166t80.5 -127q98 -94 256 -94q170 0 277 116v-104h204v1038h-209v-632q0 -115 -60 -173.5t-155 -58.5q-92 0 -150 58.5t-58 173.5v632h-209v-663z" />
<glyph unicode="v" horiz-adv-x="964" d="M16 1038l381 -1038h170l381 1038h-221l-244 -731l-245 731h-222z" />
<glyph unicode="w" horiz-adv-x="1521" d="M16 1038l322 -1038h180l242 725l244 -725h178l323 1038h-223l-201 -731l-239 731h-162l-242 -731l-200 731h-222z" />
<glyph unicode="x" horiz-adv-x="1030" d="M45 0h252l219 354l217 -354h252l-354 530l340 508h-252l-203 -338l-205 338h-252l342 -508z" />
<glyph unicode="y" horiz-adv-x="958" d="M16 1038l363 -989l-57 -162q-23 -63 -53.5 -86.5t-96.5 -23.5h-53v-189h84q66 0 119 17.5t94 58.5q47 47 76 129l458 1245h-223l-242 -731l-247 731h-222z" />
<glyph unicode="z" horiz-adv-x="960" d="M88 0h774v186h-520l520 686v166h-745v-186h487l-516 -686v-166z" />
<glyph unicode="{" horiz-adv-x="833" d="M92 637h76q59 0 98 -39q37 -37 37 -123v-342q0 -76 17.5 -126t56.5 -89q70 -70 219 -70h145v187h-79q-49 0 -77 6t-42 22q-16 16 -23.5 46t-7.5 86v329q0 90 -37 134t-98 71q61 27 98 71t37 134v330q0 55 7 84.5t24 46.5q14 16 41.5 22t77.5 6h79v187h-145 q-150 0 -219 -70q-39 -39 -56.5 -89t-17.5 -126v-342q0 -86 -37 -123q-39 -39 -98 -39h-76v-184z" />
<glyph unicode="|" horiz-adv-x="692" d="M242 -152h209v1762h-209v-1762z" />
<glyph unicode="}" horiz-adv-x="833" d="M92 35v-187h146q150 0 219 70q39 39 56 89t17 126v342q0 86 37 123q39 39 101 39h73v184h-73q-61 0 -101 39q-37 37 -37 123v342q0 76 -17 126t-56 89q-70 70 -219 70h-146v-187h80q51 0 77.5 -6t41.5 -22q16 -16 23.5 -46t7.5 -85v-330q0 -88 36.5 -132t100.5 -73 q-63 -27 -100 -71t-37 -134v-329q0 -55 -7.5 -85t-23.5 -47q-14 -16 -41 -22t-78 -6h-80z" />
<glyph unicode="~" horiz-adv-x="1175" d="M88 571l131 -131q55 55 92 72.5t82 17.5q39 0 76 -12t86 -37q70 -35 122 -51t107 -16q82 0 147.5 34.5t155.5 124.5l-133 132q-55 -55 -92 -73t-82 -18q-39 0 -76.5 12.5t-87.5 37.5q-72 35 -122 51t-105 16q-80 0 -144.5 -33.5t-156.5 -126.5z" />
<glyph unicode="&#xa1;" horiz-adv-x="679" d="M178 -420h254l-45 1024h-164zM190 815h230v223h-230v-223z" />
<glyph unicode="&#xa2;" horiz-adv-x="1019" d="M113 750q0 -221 102 -357.5t272 -165.5v-227h164v225q88 10 157 46t132 106l-139 135q-39 -45 -78 -67.5t-90 -30.5v671q51 -8 90 -30.5t78 -67.5l139 135q-63 70 -132 106t-157 46v184h-164v-186q-170 -29 -272 -164t-102 -358zM322 750q0 88 16 146t49 105 q49 66 119 80v-663q-72 14 -121 80q-33 45 -48 104.5t-15 147.5z" />
<glyph unicode="&#xa3;" horiz-adv-x="1155" d="M88 641h127v-641h842v199h-619v442h264v160h-264v180q0 141 70 216t194 75q74 0 118 -21.5t89 -66.5l148 145q-76 76 -159 108.5t-196 32.5q-100 0 -189 -31.5t-155.5 -92t-104.5 -149.5t-38 -200v-196h-127v-160z" />
<glyph unicode="&#xa4;" horiz-adv-x="1361" d="M139 166l137 -137l150 151q113 -78 254 -78t254 78l151 -151l138 137l-152 151q78 113 78 254t-78 254l152 150l-138 137l-151 -149q-111 76 -254 75q-143 0 -254 -75l-150 149l-137 -137l150 -150q-78 -113 -78 -254t78 -254zM401 571q0 115 82 196t197 81t196.5 -81 t81.5 -196t-81.5 -196.5t-196.5 -81.5t-197 82t-82 196z" />
<glyph unicode="&#xa5;" horiz-adv-x="1114" d="M10 1458l301 -594h-178v-159h260l53 -105v-106h-313v-160h313v-334h222v334h313v160h-313v106l53 105h260v159h-178l299 594h-240l-303 -643l-307 643h-242z" />
<glyph unicode="&#xa6;" horiz-adv-x="704" d="M242 -152h209v717h-209v-717zM242 893h209v717h-209v-717z" />
<glyph unicode="&#xa7;" horiz-adv-x="1112" d="M152 530q0 -150 72.5 -243.5t215.5 -136.5l144 -44q80 -25 119.5 -72.5t39.5 -107.5q0 -80 -49 -126t-137 -46q-86 0 -136 43t-56 119h-205q6 -170 120.5 -259t276.5 -89q164 0 277.5 98t113.5 266q0 111 -49 181.5t-131 107.5q80 41 139.5 125t59.5 195q0 147 -74 242.5 t-217 138.5l-144 43q-74 23 -113.5 63.5t-39.5 101.5q0 76 47 117t133 41q82 0 130 -38t54 -117h201q-4 152 -105.5 244.5t-279.5 92.5q-176 0 -278.5 -99t-102.5 -247q0 -104 45 -168.5t127 -105.5q-80 -41 -139 -125t-59 -195zM356 535q0 57 14.5 95t43.5 68q53 57 145 58 q82 0 143 -58q60 -54 60 -163q0 -57 -15.5 -95.5t-44.5 -66.5q-53 -57 -143 -58q-92 0 -145 58q-27 29 -42.5 67.5t-15.5 94.5z" />
<glyph unicode="&#xa8;" horiz-adv-x="1024" d="M197 1237h188v221h-188v-221zM639 1237h188v221h-188v-221z" />
<glyph unicode="&#xa9;" horiz-adv-x="1765" d="M141 729q0 -152 57.5 -287t160 -237.5t237.5 -159.5t287 -57t287 57t237 159.5t159.5 237.5t57.5 287t-57.5 287t-159.5 237.5t-237.5 159.5t-286.5 57q-152 0 -287 -57t-237.5 -159.5t-160 -237.5t-57.5 -287zM291 729q0 125 45 234.5t127 192.5t190.5 129t229.5 46 q123 0 230.5 -46t189 -129t127 -192.5t45.5 -234.5t-45.5 -234.5t-127 -192.5t-189 -129t-230.5 -46q-121 0 -229.5 46t-190.5 129t-127 192.5t-45 234.5zM528 729q0 -186 100.5 -298t266.5 -112q84 0 145.5 26t122.5 81l-94 96q-45 -39 -84 -55t-90 -16q-111 0 -166 75.5 t-55 202.5t55 203t166 76q51 0 90 -15.5t84 -56.5l94 96q-63 55 -123.5 81t-144.5 26q-166 0 -266.5 -112t-100.5 -298z" />
<glyph unicode="&#xaa;" horiz-adv-x="925" d="M106 872q0 -113 66 -178q74 -74 221 -73q76 0 124 18t93 63v-73h166v553q0 285 -340 284q-106 0 -173.5 -25.5t-125.5 -92.5l113 -107q37 45 74.5 62.5t103.5 17.5q94 0 136 -37t42 -115v-57h-215q-137 0 -211 -65.5t-74 -174.5zM272 877q0 117 144 116h190v-65 q0 -86 -35 -119q-29 -29 -63.5 -37t-89.5 -8q-145 0 -146 113z" />
<glyph unicode="&#xab;" horiz-adv-x="1212" d="M76 557l471 -471v252l-219 219l219 217v252zM594 557l471 -471v252l-221 219l221 217v252z" />
<glyph unicode="&#xac;" d="M98 489h699v-288h194v483h-893v-195z" />
<glyph unicode="&#xad;" d="M104 471h883v195h-883v-195z" />
<glyph unicode="&#xae;" horiz-adv-x="1765" d="M141 729q0 -152 57.5 -287t160 -237.5t237.5 -159.5t287 -57t287 57t237 159.5t159.5 237.5t57.5 287t-57.5 287t-159.5 237.5t-237.5 159.5t-286.5 57q-152 0 -287 -57t-237.5 -159.5t-160 -237.5t-57.5 -287zM289 729q0 125 45 235.5t127 193.5t190.5 129t231.5 46 t231.5 -46t189 -129t126 -193.5t45.5 -235.5t-45.5 -235.5t-127 -193.5t-189 -129t-230.5 -46t-231.5 46t-190.5 129t-127 193.5t-45 235.5zM625 330h147v317h102l164 -317h166l-178 338q70 25 114 81t44 136q0 102 -73 173.5t-185 71.5h-301v-800zM772 764v242h135 q57 0 94 -35t37 -86t-36.5 -86t-94.5 -35h-135z" />
<glyph unicode="&#xaf;" horiz-adv-x="1024" d="M195 1274h634v149h-634v-149z" />
<glyph unicode="&#xb0;" horiz-adv-x="964" d="M125 1124q0 -72 27.5 -137t77 -114.5t115 -77t136.5 -27.5q72 0 137.5 27.5t115.5 77t78 114.5t28 137t-28 137.5t-78 115.5t-115.5 78t-137.5 28t-137 -28t-114.5 -78t-77 -115.5t-27.5 -137.5zM297 1124q0 80 53 135.5t131 55.5t132.5 -55.5t54.5 -135.5t-54.5 -134 t-132.5 -54t-131 54t-53 134z" />
<glyph unicode="&#xb1;" d="M104 0h883v195h-883v-195zM104 647h345v-346h194v346h344v195h-344v344h-194v-344h-345v-195z" />
<glyph unicode="&#xb2;" horiz-adv-x="716" d="M92 584h533v141h-342l247 287q51 59 73 101t22 99q0 117 -75 185.5t-192 68.5t-191.5 -68.5t-74.5 -185.5h158q0 59 30.5 86t77.5 27q51 0 80 -30.5t29 -82.5q0 -31 -10.5 -53t-34.5 -53l-330 -381v-141z" />
<glyph unicode="&#xb3;" horiz-adv-x="741" d="M92 831q2 -129 83 -193.5t198 -64.5q119 0 197.5 69t78.5 194q0 74 -30.5 123t-83.5 75q47 25 74.5 70t27.5 113q0 111 -75 180t-191 69q-113 0 -187.5 -66.5t-79.5 -180.5h156q4 51 34 78.5t77 27.5t78.5 -29.5t31.5 -85.5q0 -49 -29.5 -80.5t-84.5 -31.5h-23v-135h23 q59 0 92 -33t33 -90q0 -59 -33 -92t-86 -33q-51 0 -86 29.5t-37 86.5h-158z" />
<glyph unicode="&#xb4;" horiz-adv-x="1024" d="M406 1227h157l228 332h-232z" />
<glyph unicode="&#xb5;" horiz-adv-x="1165" d="M156 -420h209v459q61 -51 153 -51q168 0 275 116v-104h204v1038h-209v-632q0 -115 -59 -173.5t-154 -58.5q-94 0 -152 58.5t-58 173.5v632h-209v-1458z" />
<glyph unicode="&#xb6;" horiz-adv-x="1304" d="M78 1051q0 -80 29.5 -153t85 -129t127 -88t155.5 -32v-1069h209v1680h221v-1680h209v1878h-575q-209 0 -335 -111.5t-126 -295.5z" />
<glyph unicode="&#xb7;" horiz-adv-x="569" d="M160 444h250v250h-250v-250z" />
<glyph unicode="&#xb8;" horiz-adv-x="1024" d="M342 -432h207l104 301h-168z" />
<glyph unicode="&#xb9;" horiz-adv-x="567" d="M82 1126l178 156v-698h158v874h-158l-178 -153v-179z" />
<glyph unicode="&#xba;" horiz-adv-x="937" d="M125 1044q0 -115 20.5 -191.5t77.5 -133.5q43 -45 104.5 -71.5t141.5 -26.5t142.5 26.5t105.5 71.5q57 57 77.5 133.5t20.5 191.5q0 113 -20.5 190t-77.5 134q-43 45 -105.5 71.5t-142.5 26.5t-141.5 -26.5t-104.5 -71.5q-57 -57 -77.5 -134t-20.5 -190zM295 1044 q0 82 10 135.5t45 88.5q47 47 119 47q74 0 121 -47q35 -35 44 -87.5t9 -136.5q0 -86 -9 -138t-44 -87q-47 -47 -121 -47q-72 0 -119 47q-35 35 -45 89.5t-10 135.5z" />
<glyph unicode="&#xbb;" horiz-adv-x="1212" d="M147 86l474 471l-474 469v-252l222 -217l-222 -219v-252zM666 86l473 471l-473 469v-252l219 -217l-219 -219v-252z" />
<glyph unicode="&#xbc;" horiz-adv-x="1654" d="M82 1126l178 156v-698h158v874h-158l-178 -153v-179zM369 0h166l686 1458h-166zM983 125h356v-125h152v125h82v145h-82v170h-152v-170h-186l301 604h-170l-301 -604v-145z" />
<glyph unicode="&#xbd;" horiz-adv-x="1693" d="M82 1126l178 156v-698h158v874h-158l-178 -153v-179zM352 0h166l686 1458h-166zM1071 0h531v141h-342l247 287q51 59 73 101t22 100q0 117 -75 185.5t-192 68.5t-190.5 -69t-73.5 -185h156q0 59 30.5 85.5t77.5 26.5q51 0 80 -30.5t29 -81.5q0 -31 -10.5 -53.5 t-34.5 -53.5l-328 -381v-141z" />
<glyph unicode="&#xbe;" horiz-adv-x="1728" d="M92 831q2 -129 83 -193.5t198 -64.5q119 0 197.5 69t78.5 194q0 74 -30.5 123t-83.5 75q47 25 74.5 70t27.5 113q0 111 -75 180t-191 69q-113 0 -187.5 -66.5t-79.5 -180.5h156q4 51 34 78.5t77 27.5t78.5 -29.5t31.5 -85.5q0 -49 -29.5 -80.5t-84.5 -31.5h-23v-135h23 q59 0 92 -33t33 -90q0 -59 -33 -92t-86 -33q-51 0 -86 29.5t-37 86.5h-158zM455 0h166l686 1458h-166zM1059 125h356v-125h150v125h82v145h-82v170h-150v-170h-186l301 604h-172l-299 -604v-145z" />
<glyph unicode="&#xbf;" horiz-adv-x="1046" d="M84 -39q0 -88 31.5 -161.5t88 -125t130.5 -79t158 -27.5q86 0 160.5 28.5t131 82t87 125t30.5 157.5h-209q0 -86 -54 -145.5t-146 -59.5q-88 0 -143.5 57.5t-55.5 145.5q0 72 63 156l158 215q39 51 55.5 96t16.5 106v74h-209v-61q0 -25 -10.5 -56.5t-26.5 -54.5 l-160 -221q-45 -63 -70.5 -122.5t-25.5 -129.5zM367 815h229v223h-229v-223z" />
<glyph unicode="&#xc0;" horiz-adv-x="1280" d="M16 0h236l100 293h576l100 -293h236l-535 1458h-178zM354 1931l228 -332h157l-153 332h-232zM418 481l227 647l221 -647h-448z" />
<glyph unicode="&#xc1;" horiz-adv-x="1280" d="M16 0h236l100 293h576l100 -293h236l-535 1458h-178zM418 481l227 647l221 -647h-448zM528 1599h158l227 332h-231z" />
<glyph unicode="&#xc2;" horiz-adv-x="1280" d="M16 0h236l100 293h576l100 -293h236l-535 1458h-178zM283 1599h174l178 199l178 -199h174l-264 330h-176zM418 481l227 647l221 -647h-448z" />
<glyph unicode="&#xc3;" horiz-adv-x="1280" d="M16 0h236l100 293h576l100 -293h236l-535 1458h-178zM281 1747l98 -96q39 39 63.5 50t55.5 11q47 0 114 -39q43 -25 77 -36t77 -11q51 0 99 23.5t114 89.5l-98 96q-39 -39 -66 -51t-55 -12q-47 0 -113 38q-45 27 -77.5 38.5t-75.5 11.5q-53 0 -100.5 -24t-112.5 -89z M418 481l227 647l221 -647h-448z" />
<glyph unicode="&#xc4;" horiz-adv-x="1280" d="M16 0h236l100 293h576l100 -293h236l-535 1458h-178zM319 1610h189v221h-189v-221zM418 481l227 647l221 -647h-448zM762 1610h188v221h-188v-221z" />
<glyph unicode="&#xc5;" horiz-adv-x="1280" d="M16 0h236l100 293h576l100 -293h236l-535 1458h-178zM379 1792q0 -106 74.5 -181t181.5 -75q106 0 181 75t75 181t-75 181t-181 75t-181 -75t-75 -181zM418 481l227 647l221 -647h-448zM504 1792q0 53 39 91t92 38t92 -38t39 -91t-39 -91t-92 -38t-92 38t-39 91z" />
<glyph unicode="&#xc6;" horiz-adv-x="1949" d="M10 0h242l172 332h481v-332h932v199h-711v434h607v198h-607v429h711v198h-1061zM520 520l385 740v-740h-385z" />
<glyph unicode="&#xc7;" horiz-adv-x="1286" d="M137 729q0 -135 3 -211t15.5 -142.5t42 -123.5t81.5 -109q156 -156 383 -155q203 0 343 117.5t177 330.5h-224q-27 -115 -102.5 -182.5t-193.5 -67.5q-63 0 -120 23.5t-96 64.5q-29 31 -45 64t-25 82t-13.5 121.5t-4.5 187.5t4.5 186.5t13.5 121.5t26.5 84t43.5 63 q39 41 95.5 64.5t120.5 23.5q117 0 192.5 -67.5t101.5 -182.5h226q-37 215 -176.5 331.5t-343.5 116.5q-227 0 -383 -155q-51 -51 -80 -108.5t-42.5 -124t-16.5 -141.5t-3 -212zM455 -432h207l104 301h-168z" />
<glyph unicode="&#xc8;" horiz-adv-x="1234" d="M190 0h932v199h-710v438h606v197h-606v426h710v198h-932v-1458zM358 1931l228 -332h157l-153 332h-232z" />
<glyph unicode="&#xc9;" horiz-adv-x="1234" d="M190 0h932v199h-710v438h606v197h-606v426h710v198h-932v-1458zM530 1599h158l227 332h-231z" />
<glyph unicode="&#xca;" horiz-adv-x="1234" d="M190 0h932v199h-710v438h606v197h-606v426h710v198h-932v-1458zM285 1599h174l178 199l178 -199h174l-264 330h-176z" />
<glyph unicode="&#xcb;" horiz-adv-x="1234" d="M190 0h932v199h-710v438h606v197h-606v426h710v198h-932v-1458zM322 1610h188v221h-188v-221zM764 1610h188v221h-188v-221z" />
<glyph unicode="&#xcc;" horiz-adv-x="602" d="M-2 1931h231l154 -332h-158zM190 0v1458h222v-1458h-222z" />
<glyph unicode="&#xcd;" horiz-adv-x="602" d="M190 0v1458h222v-1458h-222zM190 1599l154 332h231l-227 -332h-158z" />
<glyph unicode="&#xce;" horiz-adv-x="602" d="M-49 1599l264 330h176l264 -330h-174l-178 199l-178 -199h-174zM190 0v1458h222v-1458h-222z" />
<glyph unicode="&#xcf;" horiz-adv-x="602" d="M-8 1610v221h188v-221h-188zM190 0v1458h222v-1458h-222zM434 1610v221h189v-221h-189z" />
<glyph unicode="&#xd0;" horiz-adv-x="1400" d="M78 651h151v-651h506q133 0 239.5 51t178.5 142q41 49 62.5 97t31.5 105.5t13.5 129t3.5 204.5q0 131 -2 198.5t-12.5 126t-33 107.5t-63.5 103q-150 195 -412 194h-512v-637h-151v-170zM451 197v454h282v170h-282v441h264q90 0 153.5 -31t110.5 -96q23 -31 35 -62 t18 -75t8 -106.5t2 -168.5q0 -111 -2 -173.5t-7 -101t-15 -66.5t-31 -56q-88 -129 -272 -129h-264z" />
<glyph unicode="&#xd1;" horiz-adv-x="1476" d="M190 0h222v1026l231 -350l442 -676h203v1458h-221v-1024l-258 393l-416 631h-203v-1458zM387 1747l98 -96q39 39 63.5 50t55.5 11q47 0 115 -39q43 -25 76.5 -36t76.5 -11q51 0 99 23.5t114 89.5l-98 96q-39 -39 -65.5 -51t-55.5 -12q-47 0 -112 38q-45 27 -78 38.5 t-76 11.5q-53 0 -100 -24t-113 -89z" />
<glyph unicode="&#xd2;" horiz-adv-x="1325" d="M137 729q0 -135 3 -211t15.5 -142.5t42 -123.5t81.5 -109q156 -156 383 -155q229 0 385 155q49 49 77.5 104.5t42 123t16.5 145.5t3 213t-3 213t-16.5 145.5t-42 123t-77.5 104.5q-156 156 -385 155q-227 0 -383 -155q-51 -51 -80 -108.5t-42.5 -124t-16.5 -141.5 t-3 -212zM358 729q0 113 4.5 186.5t12.5 121.5t25.5 82t43.5 63q39 43 96.5 66.5t121.5 23.5q63 0 120.5 -23.5t96.5 -66.5q29 -31 45 -64t25 -82t12.5 -121.5t3.5 -185.5t-3.5 -186.5t-12.5 -121.5t-26.5 -81t-43.5 -64q-39 -41 -96.5 -65.5t-120.5 -24.5t-121 25t-97 65 q-29 31 -44 64t-24 82t-13.5 121.5t-4.5 185.5zM383 1931l227 -332h158l-154 332h-231z" />
<glyph unicode="&#xd3;" horiz-adv-x="1325" d="M137 729q0 -135 3 -211t15.5 -142.5t42 -123.5t81.5 -109q156 -156 383 -155q229 0 385 155q49 49 77.5 104.5t42 123t16.5 145.5t3 213t-3 213t-16.5 145.5t-42 123t-77.5 104.5q-156 156 -385 155q-227 0 -383 -155q-51 -51 -80 -108.5t-42.5 -124t-16.5 -141.5 t-3 -212zM358 729q0 113 4.5 186.5t12.5 121.5t25.5 82t43.5 63q39 43 96.5 66.5t121.5 23.5q63 0 120.5 -23.5t96.5 -66.5q29 -31 45 -64t25 -82t12.5 -121.5t3.5 -185.5t-3.5 -186.5t-12.5 -121.5t-26.5 -81t-43.5 -64q-39 -41 -96.5 -65.5t-120.5 -24.5t-121 25t-97 65 q-29 31 -44 64t-24 82t-13.5 121.5t-4.5 185.5zM555 1599h158l227 332h-231z" />
<glyph unicode="&#xd4;" horiz-adv-x="1325" d="M137 729q0 -135 3 -211t15.5 -142.5t42 -123.5t81.5 -109q156 -156 383 -155q229 0 385 155q49 49 77.5 104.5t42 123t16.5 145.5t3 213t-3 213t-16.5 145.5t-42 123t-77.5 104.5q-156 156 -385 155q-227 0 -383 -155q-51 -51 -80 -108.5t-42.5 -124t-16.5 -141.5 t-3 -212zM309 1599h174l179 199l178 -199h174l-264 330h-177zM358 729q0 113 4.5 186.5t12.5 121.5t25.5 82t43.5 63q39 43 96.5 66.5t121.5 23.5q63 0 120.5 -23.5t96.5 -66.5q29 -31 45 -64t25 -82t12.5 -121.5t3.5 -185.5t-3.5 -186.5t-12.5 -121.5t-26.5 -81t-43.5 -64 q-39 -41 -96.5 -65.5t-120.5 -24.5t-121 25t-97 65q-29 31 -44 64t-24 82t-13.5 121.5t-4.5 185.5z" />
<glyph unicode="&#xd5;" horiz-adv-x="1325" d="M137 729q0 -135 3 -211t15.5 -142.5t42 -123.5t81.5 -109q156 -156 383 -155q229 0 385 155q49 49 77.5 104.5t42 123t16.5 145.5t3 213t-3 213t-16.5 145.5t-42 123t-77.5 104.5q-156 156 -385 155q-227 0 -383 -155q-51 -51 -80 -108.5t-42.5 -124t-16.5 -141.5 t-3 -212zM309 1747l99 -96q39 39 63.5 50t54.5 11q47 0 115 -39q43 -25 77 -36t77 -11q51 0 99 23.5t114 89.5l-99 96q-39 -39 -65.5 -51t-55.5 -12q-47 0 -112 38q-45 27 -78 38.5t-76 11.5q-53 0 -100 -24t-113 -89zM358 729q0 113 4.5 186.5t12.5 121.5t25.5 82t43.5 63 q39 43 96.5 66.5t121.5 23.5q63 0 120.5 -23.5t96.5 -66.5q29 -31 45 -64t25 -82t12.5 -121.5t3.5 -185.5t-3.5 -186.5t-12.5 -121.5t-26.5 -81t-43.5 -64q-39 -41 -96.5 -65.5t-120.5 -24.5t-121 25t-97 65q-29 31 -44 64t-24 82t-13.5 121.5t-4.5 185.5z" />
<glyph unicode="&#xd6;" horiz-adv-x="1325" d="M137 729q0 -135 3 -211t15.5 -142.5t42 -123.5t81.5 -109q156 -156 383 -155q229 0 385 155q49 49 77.5 104.5t42 123t16.5 145.5t3 213t-3 213t-16.5 145.5t-42 123t-77.5 104.5q-156 156 -385 155q-227 0 -383 -155q-51 -51 -80 -108.5t-42.5 -124t-16.5 -141.5 t-3 -212zM346 1610h189v221h-189v-221zM358 729q0 113 4.5 186.5t12.5 121.5t25.5 82t43.5 63q39 43 96.5 66.5t121.5 23.5q63 0 120.5 -23.5t96.5 -66.5q29 -31 45 -64t25 -82t12.5 -121.5t3.5 -185.5t-3.5 -186.5t-12.5 -121.5t-26.5 -81t-43.5 -64q-39 -41 -96.5 -65.5 t-120.5 -24.5t-121 25t-97 65q-29 31 -44 64t-24 82t-13.5 121.5t-4.5 185.5zM788 1610h189v221h-189v-221z" />
<glyph unicode="&#xd7;" d="M117 270l131 -129l297 297l299 -297l131 129l-299 299l299 299l-131 131l-299 -299l-297 299l-131 -131l299 -299z" />
<glyph unicode="&#xd8;" horiz-adv-x="1335" d="M137 729q0 -135 3 -211t15.5 -142.5t42 -123.5t81.5 -109l12 -12l-105 -221h168l64 133q115 -55 244 -55q229 0 385 155q49 49 77.5 104.5t42 123t16.5 145.5t3 213t-3 213t-16.5 145.5t-42 123t-77.5 104.5q0 2 -7 6q-6 6 -8 6l107 221h-170l-62 -133q-115 55 -245 55 q-227 0 -383 -155q-51 -51 -80 -108.5t-42.5 -124t-16.5 -141.5t-3 -212zM360 729q0 113 4.5 186.5t12.5 121.5t25.5 82t43.5 63q39 43 95.5 66.5t120.5 23.5q89 0 163 -45l-424 -887q-25 51 -33 136t-8 253zM500 231l424 887q25 -49 33 -132t8 -257q0 -113 -3.5 -186.5 t-12.5 -121.5t-26.5 -81t-43.5 -64q-39 -41 -96.5 -65.5t-120.5 -24.5q-90 0 -162 45z" />
<glyph unicode="&#xd9;" horiz-adv-x="1382" d="M168 492q0 -111 39 -204t110.5 -161t167 -103.5t205.5 -35.5q111 0 207 35.5t167 103.5t110.5 161t39.5 204v966h-221v-956q0 -145 -83 -230.5t-220 -85.5t-219 85t-82 231v956h-221v-966zM414 1931l227 -332h158l-154 332h-231z" />
<glyph unicode="&#xda;" horiz-adv-x="1382" d="M168 492q0 -111 39 -204t110.5 -161t167 -103.5t205.5 -35.5q111 0 207 35.5t167 103.5t110.5 161t39.5 204v966h-221v-956q0 -145 -83 -230.5t-220 -85.5t-219 85t-82 231v956h-221v-966zM586 1599h157l228 332h-232z" />
<glyph unicode="&#xdb;" horiz-adv-x="1382" d="M168 492q0 -111 39 -204t110.5 -161t167 -103.5t205.5 -35.5q111 0 207 35.5t167 103.5t110.5 161t39.5 204v966h-221v-956q0 -145 -83 -230.5t-220 -85.5t-219 85t-82 231v956h-221v-966zM340 1599h174l178 199l178 -199h174l-264 330h-176z" />
<glyph unicode="&#xdc;" horiz-adv-x="1382" d="M168 492q0 -111 39 -204t110.5 -161t167 -103.5t205.5 -35.5q111 0 207 35.5t167 103.5t110.5 161t39.5 204v966h-221v-956q0 -145 -83 -230.5t-220 -85.5t-219 85t-82 231v956h-221v-966zM377 1610h188v221h-188v-221zM819 1610h189v221h-189v-221z" />
<glyph unicode="&#xdd;" horiz-adv-x="1114" d="M10 1458l436 -858v-600h222v600l436 858h-242l-305 -641l-305 641h-242zM451 1599h157l228 332h-232z" />
<glyph unicode="&#xde;" horiz-adv-x="1304" d="M190 0h222v295h331q211 0 339 123.5t128 316.5q0 94 -32.5 175t-94.5 143q-129 125 -340 125h-331v280h-222v-1458zM412 494v485h317q117 0 187.5 -65.5t70.5 -178.5t-70.5 -177t-187.5 -64h-317z" />
<glyph unicode="&#xdf;" horiz-adv-x="1157" d="M166 0h211v1057q0 111 52 171t169 60q115 0 166 -49q51 -47 51 -123q0 -74 -42 -113.5t-109 -39.5h-64v-166h72q68 0 106 -39q37 -35 37 -109v-319q0 -82 -43 -117q-23 -18 -45 -26.5t-61 -8.5h-66v-178h109q147 0 233 80q84 77 84 231v338q0 96 -30.5 148.5t-98.5 87.5 q59 39 93 95t34 142q0 174 -115.5 262.5t-304.5 88.5q-201 0 -319.5 -103.5t-118.5 -300.5v-1069z" />
<glyph unicode="&#xe0;" horiz-adv-x="1085" d="M88 305q0 -137 82 -223q94 -94 279 -94q96 0 157.5 24.5t118.5 81.5v-94h205v694q0 356 -428 357q-133 0 -217 -33t-156 -117l137 -129q43 55 92.5 77.5t135.5 22.5q119 0 173 -47t54 -147v-74h-275q-174 0 -266 -82t-92 -217zM248 1559l227 -332h158l-154 332h-231z M291 309q0 150 186 150h244v-84q0 -109 -45 -154q-39 -37 -83 -48t-112 -11q-190 0 -190 147z" />
<glyph unicode="&#xe1;" horiz-adv-x="1085" d="M88 305q0 -137 82 -223q94 -94 279 -94q96 0 157.5 24.5t118.5 81.5v-94h205v694q0 356 -428 357q-133 0 -217 -33t-156 -117l137 -129q43 55 92.5 77.5t135.5 22.5q119 0 173 -47t54 -147v-74h-275q-174 0 -266 -82t-92 -217zM291 309q0 150 186 150h244v-84 q0 -109 -45 -154q-39 -37 -83 -48t-112 -11q-190 0 -190 147zM420 1227h158l227 332h-232z" />
<glyph unicode="&#xe2;" horiz-adv-x="1085" d="M88 305q0 -137 82 -223q94 -94 279 -94q96 0 157.5 24.5t118.5 81.5v-94h205v694q0 356 -428 357q-133 0 -217 -33t-156 -117l137 -129q43 55 92.5 77.5t135.5 22.5q119 0 173 -47t54 -147v-74h-275q-174 0 -266 -82t-92 -217zM174 1227h174l178 198l179 -198h174 l-265 329h-176zM291 309q0 150 186 150h244v-84q0 -109 -45 -154q-39 -37 -83 -48t-112 -11q-190 0 -190 147z" />
<glyph unicode="&#xe3;" horiz-adv-x="1085" d="M88 305q0 -137 82 -223q94 -94 279 -94q96 0 157.5 24.5t118.5 81.5v-94h205v694q0 356 -428 357q-133 0 -217 -33t-156 -117l137 -129q43 55 92.5 77.5t135.5 22.5q119 0 173 -47t54 -147v-74h-275q-174 0 -266 -82t-92 -217zM174 1374l98 -96q39 39 63.5 50t55.5 11 q47 0 115 -39q43 -25 76.5 -36t76.5 -11q51 0 99 23.5t114 89.5l-98 96q-39 -39 -65.5 -51t-55.5 -12q-47 0 -112 39q-45 27 -78 38t-76 11q-53 0 -100 -23.5t-113 -89.5zM291 309q0 150 186 150h244v-84q0 -109 -45 -154q-39 -37 -83 -48t-112 -11q-190 0 -190 147z" />
<glyph unicode="&#xe4;" horiz-adv-x="1085" d="M88 305q0 -137 82 -223q94 -94 279 -94q96 0 157.5 24.5t118.5 81.5v-94h205v694q0 356 -428 357q-133 0 -217 -33t-156 -117l137 -129q43 55 92.5 77.5t135.5 22.5q119 0 173 -47t54 -147v-74h-275q-174 0 -266 -82t-92 -217zM211 1237h188v221h-188v-221zM291 309 q0 150 186 150h244v-84q0 -109 -45 -154q-39 -37 -83 -48t-112 -11q-190 0 -190 147zM653 1237h189v221h-189v-221z" />
<glyph unicode="&#xe5;" horiz-adv-x="1085" d="M88 305q0 -137 82 -223q94 -94 279 -94q96 0 157.5 24.5t118.5 81.5v-94h205v694q0 356 -428 357q-133 0 -217 -33t-156 -117l137 -129q43 55 92.5 77.5t135.5 22.5q119 0 173 -47t54 -147v-74h-275q-174 0 -266 -82t-92 -217zM270 1436q0 -106 75 -181t181 -75t181 75 t75 181t-74.5 181t-181.5 75q-106 0 -181 -75t-75 -181zM291 309q0 150 186 150h244v-84q0 -109 -45 -154q-39 -37 -83 -48t-112 -11q-190 0 -190 147zM395 1436q0 53 39 91t92 38t92 -38t39 -91t-38.5 -91t-92.5 -38q-53 0 -92 37.5t-39 91.5z" />
<glyph unicode="&#xe6;" horiz-adv-x="1714" d="M88 305q0 -66 21.5 -124t60.5 -99q49 -49 115.5 -71.5t163.5 -22.5q127 0 211.5 34.5t160.5 127.5q61 -82 155.5 -122t211.5 -40q131 0 218 39t171 123l-133 124q-57 -57 -112.5 -81.5t-139.5 -24.5q-127 0 -195.5 78t-68.5 213h674v92q0 225 -117 362.5t-324 137.5 q-195 0 -307 -138q-96 137 -352 138q-133 0 -217 -33t-156 -117l137 -129q43 55 92.5 77.5t135.5 22.5q119 0 173 -47t54 -147v-74h-275q-174 0 -266 -82t-92 -217zM291 309q0 150 186 150h244v-84q0 -109 -45 -154q-39 -37 -83 -48t-112 -11q-190 0 -190 147zM928 604 q2 47 7 77t21 64q25 59 79.5 95.5t125.5 36.5q72 0 127 -36t80 -96q14 -33 19.5 -61.5t7.5 -79.5h-467z" />
<glyph unicode="&#xe7;" horiz-adv-x="999" d="M113 520q0 -139 37.5 -242.5t103 -167t147.5 -93t174 -29.5q109 0 189 34.5t154 112.5l-144 137q-49 -55 -93 -76.5t-106 -21.5q-123 0 -192 92q-33 41 -47 101.5t-14 152.5t14 151.5t47 100.5q70 92 192 92q61 0 105.5 -21.5t93.5 -76.5l144 139q-74 78 -154 112 t-189 34q-92 0 -174 -29t-147.5 -92.5t-103 -165.5t-37.5 -244zM342 -432h207l104 301h-168z" />
<glyph unicode="&#xe8;" horiz-adv-x="1103" d="M113 520q0 -143 35.5 -246.5t98 -166t146.5 -91t187 -28.5q131 0 218 39t171 123l-133 124q-57 -57 -112.5 -81.5t-139.5 -24.5q-125 0 -195 78t-70 213h674v92q0 225 -116.5 362.5t-323.5 137.5q-201 0 -320.5 -140.5t-119.5 -390.5zM281 1559l227 -332h158l-154 332 h-231zM319 604q2 51 7.5 80t19.5 61q25 59 80 95.5t127 36.5t126 -36t79 -96q16 -35 21 -64.5t7 -76.5h-467z" />
<glyph unicode="&#xe9;" horiz-adv-x="1103" d="M113 520q0 -143 35.5 -246.5t98 -166t146.5 -91t187 -28.5q131 0 218 39t171 123l-133 124q-57 -57 -112.5 -81.5t-139.5 -24.5q-125 0 -195 78t-70 213h674v92q0 225 -116.5 362.5t-323.5 137.5q-201 0 -320.5 -140.5t-119.5 -390.5zM319 604q2 51 7.5 80t19.5 61 q25 59 80 95.5t127 36.5t126 -36t79 -96q16 -35 21 -64.5t7 -76.5h-467zM453 1227h157l228 332h-232z" />
<glyph unicode="&#xea;" horiz-adv-x="1103" d="M113 520q0 -143 35.5 -246.5t98 -166t146.5 -91t187 -28.5q131 0 218 39t171 123l-133 124q-57 -57 -112.5 -81.5t-139.5 -24.5q-125 0 -195 78t-70 213h674v92q0 225 -116.5 362.5t-323.5 137.5q-201 0 -320.5 -140.5t-119.5 -390.5zM207 1227h174l178 198l178 -198h174 l-264 329h-176zM319 604q2 51 7.5 80t19.5 61q25 59 80 95.5t127 36.5t126 -36t79 -96q16 -35 21 -64.5t7 -76.5h-467z" />
<glyph unicode="&#xeb;" horiz-adv-x="1103" d="M113 520q0 -143 35.5 -246.5t98 -166t146.5 -91t187 -28.5q131 0 218 39t171 123l-133 124q-57 -57 -112.5 -81.5t-139.5 -24.5q-125 0 -195 78t-70 213h674v92q0 225 -116.5 362.5t-323.5 137.5q-201 0 -320.5 -140.5t-119.5 -390.5zM244 1237h188v221h-188v-221z M319 604q2 51 7.5 80t19.5 61q25 59 80 95.5t127 36.5t126 -36t79 -96q16 -35 21 -64.5t7 -76.5h-467zM686 1237h188v221h-188v-221z" />
<glyph unicode="&#xec;" horiz-adv-x="540" d="M-27 1559h232l153 -332h-157zM166 0v1038h209v-1038h-209z" />
<glyph unicode="&#xed;" horiz-adv-x="540" d="M166 0v1038h209v-1038h-209zM166 1227l153 332h232l-227 -332h-158z" />
<glyph unicode="&#xee;" horiz-adv-x="540" d="M-76 1227l264 329h177l264 -329h-174l-179 198l-178 -198h-174zM166 0v1038h209v-1038h-209z" />
<glyph unicode="&#xef;" horiz-adv-x="540" d="M-43 1237v221h188v-221h-188zM166 0v1038h209v-1038h-209zM399 1237v221h189v-221h-189z" />
<glyph unicode="&#xf0;" horiz-adv-x="1099" d="M125 510q0 -139 25.5 -234.5t95.5 -166.5q53 -55 129 -88t174 -33t176 32.5t129 88.5q70 72 95.5 167t25.5 234q0 74 -5 129t-19.5 107.5t-40 109.5t-64.5 129l-105 193h103v147h-178l-80 143h-221l79 -143h-159v-147h237l92 -166q-45 10 -86 10q-47 0 -69 -6 q-133 -23 -213 -105q-70 -72 -95.5 -167t-25.5 -234zM334 510q0 100 13 166.5t54 109.5q59 59 148 60q90 0 149 -60q41 -43 54.5 -109.5t13.5 -166.5t-13.5 -167t-54.5 -110q-59 -59 -149 -59q-88 0 -148 59q-41 43 -54 110t-13 167z" />
<glyph unicode="&#xf1;" horiz-adv-x="1163" d="M166 0h209v633q0 115 60.5 173t154.5 58t151.5 -57t57.5 -174v-633h209v664q0 94 -23.5 165.5t-81.5 126.5q-98 94 -256 95q-168 0 -276 -117v104h-205v-1038zM236 1374l98 -96q39 39 63.5 50t55.5 11q47 0 114 -39q43 -25 77 -36t77 -11q51 0 99 23.5t114 89.5l-98 96 q-39 -39 -66 -51t-55 -12q-47 0 -113 39q-45 27 -77.5 38t-75.5 11q-53 0 -100.5 -23.5t-112.5 -89.5z" />
<glyph unicode="&#xf2;" horiz-adv-x="1099" d="M117 520q0 -141 26.5 -238.5t96.5 -170.5q55 -57 132 -90t177 -33t178 33.5t133 89.5q70 74 96.5 171t26.5 238t-26.5 238.5t-96.5 169.5q-55 57 -133 90t-178 33t-177 -33t-132 -90q-70 -72 -96.5 -169t-26.5 -239zM256 1559l227 -332h158l-154 332h-231zM326 520 q0 102 14 172t57 113q59 59 152 59q94 0 153 -59q43 -43 57.5 -113t14.5 -172t-14.5 -171.5t-57.5 -112.5q-61 -61 -153 -62q-90 0 -152 62q-43 43 -57 112.5t-14 171.5z" />
<glyph unicode="&#xf3;" horiz-adv-x="1099" d="M117 520q0 -141 26.5 -238.5t96.5 -170.5q55 -57 132 -90t177 -33t178 33.5t133 89.5q70 74 96.5 171t26.5 238t-26.5 238.5t-96.5 169.5q-55 57 -133 90t-178 33t-177 -33t-132 -90q-70 -72 -96.5 -169t-26.5 -239zM326 520q0 102 14 172t57 113q59 59 152 59 q94 0 153 -59q43 -43 57.5 -113t14.5 -172t-14.5 -171.5t-57.5 -112.5q-61 -61 -153 -62q-90 0 -152 62q-43 43 -57 112.5t-14 171.5zM442 1227h158l227 332h-231z" />
<glyph unicode="&#xf4;" horiz-adv-x="1099" d="M117 520q0 -141 26.5 -238.5t96.5 -170.5q55 -57 132 -90t177 -33t178 33.5t133 89.5q70 74 96.5 171t26.5 238t-26.5 238.5t-96.5 169.5q-55 57 -133 90t-178 33t-177 -33t-132 -90q-70 -72 -96.5 -169t-26.5 -239zM197 1227h174l178 198l178 -198h174l-264 329h-176z M326 520q0 102 14 172t57 113q59 59 152 59q94 0 153 -59q43 -43 57.5 -113t14.5 -172t-14.5 -171.5t-57.5 -112.5q-61 -61 -153 -62q-90 0 -152 62q-43 43 -57 112.5t-14 171.5z" />
<glyph unicode="&#xf5;" horiz-adv-x="1099" d="M117 520q0 -141 26.5 -238.5t96.5 -170.5q55 -57 132 -90t177 -33t178 33.5t133 89.5q70 74 96.5 171t26.5 238t-26.5 238.5t-96.5 169.5q-55 57 -133 90t-178 33t-177 -33t-132 -90q-70 -72 -96.5 -169t-26.5 -239zM197 1374l98 -96q39 39 63.5 50t55.5 11q47 0 114 -39 q43 -25 77 -36t77 -11q51 0 99 23.5t114 89.5l-98 96q-39 -39 -65.5 -51t-55.5 -12q-47 0 -113 39q-45 27 -77.5 38t-75.5 11q-53 0 -100.5 -23.5t-112.5 -89.5zM326 520q0 102 14 172t57 113q59 59 152 59q94 0 153 -59q43 -43 57.5 -113t14.5 -172t-14.5 -171.5 t-57.5 -112.5q-61 -61 -153 -62q-90 0 -152 62q-43 43 -57 112.5t-14 171.5z" />
<glyph unicode="&#xf6;" horiz-adv-x="1099" d="M117 520q0 -141 26.5 -238.5t96.5 -170.5q55 -57 132 -90t177 -33t178 33.5t133 89.5q70 74 96.5 171t26.5 238t-26.5 238.5t-96.5 169.5q-55 57 -133 90t-178 33t-177 -33t-132 -90q-70 -72 -96.5 -169t-26.5 -239zM233 1237h189v221h-189v-221zM326 520q0 102 14 172 t57 113q59 59 152 59q94 0 153 -59q43 -43 57.5 -113t14.5 -172t-14.5 -171.5t-57.5 -112.5q-61 -61 -153 -62q-90 0 -152 62q-43 43 -57 112.5t-14 171.5zM676 1237h188v221h-188v-221z" />
<glyph unicode="&#xf7;" d="M98 471h893v195h-893v-195zM434 68h223v223h-223v-223zM434 848h223v223h-223v-223z" />
<glyph unicode="&#xf8;" horiz-adv-x="1099" d="M117 520q0 -141 25.5 -238.5t95.5 -168.5l-119 -203h141l76 129q96 -51 213 -51q100 0 178 33.5t133 89.5q70 74 96.5 171t26.5 238t-26.5 238.5t-96.5 169.5l121 200h-141l-76 -129q-96 51 -215 52q-100 0 -177 -33t-132 -90q-70 -72 -96.5 -169t-26.5 -239zM326 520 q0 102 14 172t57 113q59 59 152 59q70 0 123 -35l-316 -532q-18 43 -24 97.5t-6 125.5zM428 211l315 532q18 -43 24.5 -97t6.5 -126q0 -102 -14.5 -171.5t-57.5 -112.5q-61 -61 -153 -62q-68 0 -121 37z" />
<glyph unicode="&#xf9;" horiz-adv-x="1163" d="M156 375q0 -94 23.5 -166t80.5 -127q98 -94 256 -94q170 0 277 116v-104h204v1038h-209v-632q0 -115 -60 -173.5t-155 -58.5q-92 0 -150 58.5t-58 173.5v632h-209v-663zM297 1559l227 -332h158l-154 332h-231z" />
<glyph unicode="&#xfa;" horiz-adv-x="1163" d="M156 375q0 -94 23.5 -166t80.5 -127q98 -94 256 -94q170 0 277 116v-104h204v1038h-209v-632q0 -115 -60 -173.5t-155 -58.5q-92 0 -150 58.5t-58 173.5v632h-209v-663zM469 1227h158l227 332h-231z" />
<glyph unicode="&#xfb;" horiz-adv-x="1163" d="M156 375q0 -94 23.5 -166t80.5 -127q98 -94 256 -94q170 0 277 116v-104h204v1038h-209v-632q0 -115 -60 -173.5t-155 -58.5q-92 0 -150 58.5t-58 173.5v632h-209v-663zM223 1227h174l178 198l179 -198h174l-264 329h-177z" />
<glyph unicode="&#xfc;" horiz-adv-x="1163" d="M156 375q0 -94 23.5 -166t80.5 -127q98 -94 256 -94q170 0 277 116v-104h204v1038h-209v-632q0 -115 -60 -173.5t-155 -58.5q-92 0 -150 58.5t-58 173.5v632h-209v-663zM260 1237h189v221h-189v-221zM702 1237h189v221h-189v-221z" />
<glyph unicode="&#xfd;" horiz-adv-x="958" d="M16 1038l363 -989l-57 -162q-23 -63 -53.5 -86.5t-96.5 -23.5h-53v-189h84q66 0 119 17.5t94 58.5q47 47 76 129l458 1245h-223l-242 -731l-247 731h-222zM373 1227h157l228 332h-232z" />
<glyph unicode="&#xfe;" horiz-adv-x="1134" d="M166 -420h209v526q55 -66 120.5 -92t151.5 -26q78 0 143.5 24.5t108.5 67.5q70 70 93.5 181.5t23.5 258.5t-23.5 258t-93.5 180q-43 43 -108.5 68t-143.5 25q-88 0 -152.5 -26t-119.5 -91v524h-209v-1878zM375 520q0 80 8 139.5t30.5 105.5t66.5 72.5t112 26.5 t110.5 -26.5t66.5 -73.5t31 -106.5t7 -137.5t-7 -137t-31 -107.5t-67 -75t-110 -26.5q-68 0 -112 26.5t-66.5 74t-30.5 106.5t-8 139z" />
<glyph unicode="&#xff;" horiz-adv-x="958" d="M16 1038l363 -989l-57 -162q-23 -63 -53.5 -86.5t-96.5 -23.5h-53v-189h84q66 0 119 17.5t94 58.5q47 47 76 129l458 1245h-223l-242 -731l-247 731h-222zM164 1237h188v221h-188v-221zM606 1237h189v221h-189v-221z" />
<glyph unicode="&#x152;" horiz-adv-x="2000" d="M137 729q0 -133 3 -209t15.5 -143.5t42 -127t81.5 -110.5q152 -152 378 -151q86 0 168 32.5t140 98.5v-119h923v197h-702v442h596v192h-596v431h700v196h-921v-119q-57 68 -136 99.5t-172 31.5q-227 0 -378 -151q-51 -51 -81 -110.5t-42.5 -127t-15.5 -143.5t-3 -209z M360 729q0 113 4.5 186.5t12.5 121.5t25.5 82t43.5 63q39 43 95.5 66.5t120.5 23.5q63 0 120.5 -23.5t96.5 -66.5q29 -31 45 -64t25 -82t12.5 -121.5t3.5 -185.5t-3.5 -186.5t-12.5 -121.5t-26.5 -81t-43.5 -64q-39 -41 -96.5 -65.5t-120.5 -24.5t-120 23.5t-96 66.5 q-29 31 -44 64t-24 82t-13.5 121.5t-4.5 185.5z" />
<glyph unicode="&#x153;" horiz-adv-x="1765" d="M117 520q0 -141 26.5 -238.5t96.5 -170.5q55 -57 132 -90t177 -33q111 0 198 44t136 120q59 -82 150 -123t208 -41q131 0 216 37.5t171 124.5l-133 124q-57 -57 -112.5 -81.5t-139.5 -24.5q-125 0 -194.5 78t-69.5 213h674v92q0 225 -117 362.5t-324 137.5 q-217 0 -327 -166q-49 78 -136 122t-200 44q-100 0 -177 -33t-132 -90q-70 -72 -96.5 -169t-26.5 -239zM326 520q0 102 14 172t57 113q59 59 152 59q94 0 153 -59q43 -43 57.5 -113t14.5 -172t-14.5 -171.5t-57.5 -112.5q-61 -61 -153 -62q-90 0 -152 62q-43 43 -57 112.5 t-14 171.5zM979 604q2 47 7 77t22 64q25 59 79 95.5t125 36.5q72 0 127.5 -36t79.5 -96q14 -33 19.5 -61.5t7.5 -79.5h-467z" />
<glyph unicode="&#x178;" horiz-adv-x="1114" d="M10 1458l436 -858v-600h222v600l436 858h-242l-305 -641l-305 641h-242zM242 1610h188v221h-188v-221zM684 1610h188v221h-188v-221z" />
<glyph unicode="&#x2c6;" horiz-adv-x="1024" d="M160 1227h174l178 198l178 -198h174l-264 329h-176z" />
<glyph unicode="&#x2dc;" horiz-adv-x="1024" d="M160 1374l98 -96q39 39 63.5 50t55.5 11q47 0 115 -39q43 -25 76.5 -36t76.5 -11q51 0 99 23.5t114 89.5l-98 96q-39 -39 -65.5 -51t-55.5 -12q-47 0 -113 39q-45 27 -77.5 38t-75.5 11q-53 0 -100.5 -23.5t-112.5 -89.5z" />
<glyph unicode="&#x2000;" horiz-adv-x="1024" />
<glyph unicode="&#x2001;" horiz-adv-x="2048" />
<glyph unicode="&#x2002;" horiz-adv-x="1024" />
<glyph unicode="&#x2003;" horiz-adv-x="2048" />
<glyph unicode="&#x2004;" horiz-adv-x="682" />
<glyph unicode="&#x2005;" horiz-adv-x="512" />
<glyph unicode="&#x2006;" horiz-adv-x="341" />
<glyph unicode="&#x2007;" horiz-adv-x="341" />
<glyph unicode="&#x2008;" horiz-adv-x="256" />
<glyph unicode="&#x2009;" horiz-adv-x="409" />
<glyph unicode="&#x200a;" horiz-adv-x="113" />
<glyph unicode="&#x2010;" horiz-adv-x="872" d="M137 471h598v195h-598v-195z" />
<glyph unicode="&#x2011;" horiz-adv-x="872" d="M137 471h598v195h-598v-195z" />
<glyph unicode="&#x2012;" horiz-adv-x="872" d="M137 471h598v195h-598v-195z" />
<glyph unicode="&#x2013;" d="M104 471h883v195h-883v-195z" />
<glyph unicode="&#x2014;" horiz-adv-x="1990" d="M137 473h1716v199h-1716v-199z" />
<glyph unicode="&#x2018;" horiz-adv-x="548" d="M160 1245h229v404l-229 -191v-213z" />
<glyph unicode="&#x2019;" horiz-adv-x="548" d="M160 1057l229 186v215h-229v-401z" />
<glyph unicode="&#x201a;" horiz-adv-x="546" d="M160 -188l229 188v215h-229v-403z" />
<glyph unicode="&#x201c;" horiz-adv-x="940" d="M160 1245h229v404l-229 -191v-213zM551 1245h229v404l-229 -191v-213z" />
<glyph unicode="&#x201d;" horiz-adv-x="940" d="M160 1057l229 186v215h-229v-401zM551 1057l229 186v215h-229v-401z" />
<glyph unicode="&#x201e;" horiz-adv-x="942" d="M160 -188l229 188v215h-229v-403zM551 -188l229 188v215h-229v-403z" />
<glyph unicode="&#x2022;" horiz-adv-x="1048" d="M190 684q0 -68 26 -129t72 -107.5t107.5 -72t128.5 -25.5q68 0 129.5 25.5t107.5 72t71.5 107.5t25.5 129t-25.5 129t-71.5 107.5t-107.5 72t-129.5 25.5t-129 -25.5t-107 -72t-72 -107.5t-26 -129z" />
<glyph unicode="&#x2026;" horiz-adv-x="1644" d="M160 0h239v240h-239v-240zM702 0h240v240h-240v-240zM1245 0h240v240h-240v-240z" />
<glyph unicode="&#x202f;" horiz-adv-x="409" />
<glyph unicode="&#x2039;" horiz-adv-x="694" d="M76 557l471 -471v252l-219 219l219 217v252z" />
<glyph unicode="&#x203a;" horiz-adv-x="694" d="M147 86l474 471l-474 469v-252l222 -217l-222 -219v-252z" />
<glyph unicode="&#x205f;" horiz-adv-x="512" />
<glyph unicode="&#x20ac;" horiz-adv-x="1394" d="M88 508v137h139v176h-139v137h145q8 115 36 200t100 157q76 76 171 115.5t210 39.5q100 0 187 -29.5t155.5 -86t114.5 -140.5t65 -192h-225q-27 111 -101 181.5t-196 70.5q-66 0 -120.5 -24.5t-94.5 -65.5q-39 -41 -55.5 -89t-22.5 -137h374v-137h-382v-176h382v-137 h-374q6 -92 22.5 -142.5t55.5 -91.5q41 -41 95 -65.5t120 -24.5q123 0 197.5 71t101.5 181h223q-18 -109 -65.5 -192.5t-116 -140t-155.5 -86t-185 -29.5q-115 0 -210.5 40t-170.5 115q-74 74 -100.5 160t-35.5 205h-145z" />
<glyph unicode="&#x2122;" horiz-adv-x="1808" d="M84 1317h233v-733h156v733h236v141h-625v-141zM854 584h158v571l184 -367h145l185 367v-571h157v874h-157l-258 -497l-256 497h-158v-874z" />
<glyph unicode="&#x25fc;" horiz-adv-x="1034" d="M0 0v1034h1034v-1034h-1034z" />
</font>
</defs>
</svg>
