<?xml version="1.0" encoding="utf-8"?>

<!-- License Agreement at http://iconmonstr.com/license/ -->

<!DOCTYPE svg PUBLIC "-//W3C//DTD SVG 1.1//EN" "http://www.w3.org/Graphics/SVG/1.1/DTD/svg11.dtd">
<svg version="1.1" xmlns="http://www.w3.org/2000/svg" xmlns:xlink="http://www.w3.org/1999/xlink" x="0px" y="0px"
	 width="512px" height="512px" viewBox="0 0 512 512" enable-background="new 0 0 512 512" xml:space="preserve">
<path id="loading-6-icon" d="M50.969,236.001C60.393,138.198,138.198,60.394,236,50.97V91.19
	c-36.768,4.388-70.789,20.84-97.379,47.43s-43.043,60.612-47.431,97.381H50.969z M276,91.19c36.768,4.388,70.789,20.84,97.379,47.43
	s43.043,60.612,47.431,97.381h40.222C451.607,138.198,373.802,60.394,276,50.97V91.19z M236,420.81
	c-36.769-4.388-70.79-20.84-97.379-47.43c-26.589-26.589-43.042-60.61-47.431-97.379H50.97
	C60.394,373.804,138.199,451.606,236,461.03V420.81z M420.81,276.001c-4.389,36.769-20.842,70.79-47.431,97.379
	c-26.589,26.59-60.61,43.042-97.379,47.43v40.221c97.801-9.424,175.606-87.227,185.03-185.029H420.81z"/>
</svg>
